<svg xmlns="http://www.w3.org/2000/svg" width="67.9" height="67.888" viewBox="0 0 67.9 67.888">
  <defs>
    <style type="text/css" >
      .dark-mode {
        fill: #fff;
      }
      .light-mode {
        fill: #000;
      }
    </style>
  </defs>
  <g id="web-design" class="dark-mode" transform="translate(0.25 0.25)" opacity="0.58">
    <path id="Path_492" data-name="Path 492" d="M39.432,134.774h2.807a.987.987,0,0,0,0-1.973H39.432a.987.987,0,1,0,0,1.973Zm0,0" transform="translate(-33.384 -115.319)" stroke="#000" stroke-width="0.5"/>
    <path id="Path_493" data-name="Path 493" d="M101.755,132.8H84.631a.987.987,0,0,0,0,1.973h17.124a.987.987,0,1,0,0-1.973Zm0,0" transform="translate(-72.633 -115.319)" stroke="#000" stroke-width="0.5"/>
    <path id="Path_494" data-name="Path 494" d="M153.644,170.785h-6.262a.986.986,0,1,0,0,1.973h6.262a.986.986,0,1,0,0-1.973Zm0,0" transform="translate(-127.123 -148.303)" stroke="#000" stroke-width="0.5"/>
    <path id="Path_495" data-name="Path 495" d="M109.626,170.785h-1.952a.986.986,0,0,0,0,1.973h1.952a.986.986,0,1,0,0-1.973Zm0,0" transform="translate(-92.643 -148.303)" stroke="#000" stroke-width="0.5"/>
    <path id="Path_496" data-name="Path 496" d="M45.274,170.785H39.432a.986.986,0,1,0,0,1.973h5.842a.986.986,0,0,0,0-1.973Zm0,0" transform="translate(-33.384 -148.303)" stroke="#000" stroke-width="0.5"/>
    <path id="Path_497" data-name="Path 497" d="M33.273,31.657a2.895,2.895,0,1,0,2.895-2.9A2.9,2.9,0,0,0,33.273,31.657Zm3.817,0a.922.922,0,1,1-.922-.922A.923.923,0,0,1,37.09,31.657Zm0,0" transform="translate(-28.893 -24.975)" stroke="#000" stroke-width="0.5"/>
    <path id="Path_498" data-name="Path 498" d="M89.258,31.657a2.895,2.895,0,1,0,2.9-2.9A2.9,2.9,0,0,0,89.258,31.657Zm3.817,0a.922.922,0,1,1-.922-.922A.923.923,0,0,1,93.074,31.657Zm0,0" transform="translate(-77.508 -24.975)" stroke="#000" stroke-width="0.5"/>
    <path id="Path_499" data-name="Path 499" d="M145.246,31.657a2.895,2.895,0,1,0,2.895-2.9A2.9,2.9,0,0,0,145.246,31.657Zm3.817,0a.922.922,0,1,1-.922-.922A.923.923,0,0,1,149.063,31.657Zm0,0" transform="translate(-126.125 -24.975)" stroke="#000" stroke-width="0.5"/>
    <path id="Path_500" data-name="Path 500" d="M409.948,479.7h3.293a.987.987,0,0,0,0-1.973h-3.293a.987.987,0,1,0,0,1.973Zm0,0" transform="translate(-355.125 -414.842)" stroke="#000" stroke-width="0.5"/>
    <path id="Path_501" data-name="Path 501" d="M400.282,233.852h-1.135a.986.986,0,0,0,0,1.973h1.135a.986.986,0,1,0,0-1.973Zm0,0" transform="translate(-345.745 -203.068)" stroke="#000" stroke-width="0.5"/>
    <path id="Path_502" data-name="Path 502" d="M431.046,233.852h-2.231a.986.986,0,0,0,0,1.973h2.231a.986.986,0,0,0,0-1.973Zm0,0" transform="translate(-371.509 -203.068)" stroke="#000" stroke-width="0.5"/>
    <path id="Path_503" data-name="Path 503" d="M67.325,4.342A4.346,4.346,0,0,0,62.984,0H54.568a.987.987,0,0,0,0,1.973h8.416a2.371,2.371,0,0,1,2.369,2.369v7.1H1.973v-7.1A2.371,2.371,0,0,1,4.342,1.973H48.431a.987.987,0,0,0,0-1.973H4.342A4.346,4.346,0,0,0,0,4.342V52.07a4.346,4.346,0,0,0,4.342,4.342H23.536v3.537H20.557a3.607,3.607,0,0,0-3.6,3.6v2.131A1.646,1.646,0,0,0,18.6,67.328l45.717.06A3.089,3.089,0,0,0,67.4,64.3V61.182ZM4.342,54.439A2.371,2.371,0,0,1,1.973,52.07V48.329H45.538v6.11ZM43.79,56.412h1.748v3.537H43.79Zm-1.973,0v3.537H25.508V56.412ZM18.927,65.355v-1.8a1.633,1.633,0,0,1,1.631-1.63h24.98V64.3a3.065,3.065,0,0,0,.185,1.052Zm46.5-1.052a1.113,1.113,0,0,1-1.112,1.112H48.623A1.113,1.113,0,0,1,47.511,64.3V62.168H65.427Zm0-4.108H47.511V42.988a.987.987,0,0,0-1.973,0v3.368H1.973V13.418H65.353V28.513a3.071,3.071,0,0,0-1.038-.18H48.623a3.089,3.089,0,0,0-3.085,3.085v5.563a.987.987,0,0,0,1.973,0V35.526H65.427Zm0-26.641H47.511V31.418a1.114,1.114,0,0,1,1.112-1.112H64.315a1.114,1.114,0,0,1,1.113,1.112v2.135Zm0,0" transform="translate(0)" stroke="#000" stroke-width="0.5"/>
    <path id="Path_504" data-name="Path 504" d="M369.521,293.77h3.637a.987.987,0,0,0,0-1.973h-3.637a.987.987,0,0,0,0,1.973Zm0,0" transform="translate(-320.02 -253.384)" stroke="#000" stroke-width="0.5"/>
    <path id="Path_505" data-name="Path 505" d="M418.611,293.77h1.551a.987.987,0,0,0,0-1.973h-1.551a.987.987,0,0,0,0,1.973Zm0,0" transform="translate(-362.648 -253.384)" stroke="#000" stroke-width="0.5"/>
    <path id="Path_506" data-name="Path 506" d="M450.1,293.77h3.33a.987.987,0,1,0,0-1.973H450.1a.987.987,0,0,0,0,1.973Zm0,0" transform="translate(-389.988 -253.384)" stroke="#000" stroke-width="0.5"/>
    <path id="Path_507" data-name="Path 507" d="M369.521,327.465h1.618a.987.987,0,1,0,0-1.973h-1.618a.987.987,0,0,0,0,1.973Zm0,0" transform="translate(-320.02 -282.644)" stroke="#000" stroke-width="0.5"/>
    <path id="Path_508" data-name="Path 508" d="M408.108,326.478a.986.986,0,0,0-.986-.986H402.49a.987.987,0,0,0,0,1.973h4.632A.986.986,0,0,0,408.108,326.478Zm0,0" transform="translate(-348.65 -282.644)" stroke="#000" stroke-width="0.5"/>
    <path id="Path_509" data-name="Path 509" d="M463.324,325.492h-1.829a.987.987,0,0,0,0,1.973h1.829a.987.987,0,1,0,0-1.973Zm0,0" transform="translate(-399.886 -282.644)" stroke="#000" stroke-width="0.5"/>
    <path id="Path_510" data-name="Path 510" d="M369.521,358.465h3.237a.987.987,0,0,0,0-1.973h-3.237a.987.987,0,0,0,0,1.973Zm0,0" transform="translate(-320.02 -309.563)" stroke="#000" stroke-width="0.5"/>
    <path id="Path_511" data-name="Path 511" d="M414.628,358.465h4.1a.987.987,0,0,0,0-1.973h-4.1a.987.987,0,1,0,0,1.973Zm0,0" transform="translate(-359.189 -309.563)" stroke="#000" stroke-width="0.5"/>
    <path id="Path_512" data-name="Path 512" d="M467.085,356.492h-1.259a.987.987,0,0,0,0,1.973h1.259a.987.987,0,1,0,0-1.973Zm0,0" transform="translate(-403.648 -309.563)" stroke="#000" stroke-width="0.5"/>
    <path id="Path_513" data-name="Path 513" d="M369.521,392.161h4.951a.987.987,0,1,0,0-1.973h-4.951a.987.987,0,0,0,0,1.973Zm0,0" transform="translate(-320.02 -338.823)" stroke="#000" stroke-width="0.5"/>
    <path id="Path_514" data-name="Path 514" d="M429.738,390.188H428.4a.987.987,0,0,0,0,1.973h1.342a.987.987,0,0,0,0-1.973Zm0,0" transform="translate(-371.145 -338.823)" stroke="#000" stroke-width="0.5"/>
    <path id="Path_515" data-name="Path 515" d="M459.969,390.188h-2.338a.987.987,0,0,0,0,1.973h2.338a.987.987,0,1,0,0-1.973Zm0,0" transform="translate(-396.532 -338.823)" stroke="#000" stroke-width="0.5"/>
  </g>
</svg>
