<svg xmlns="http://www.w3.org/2000/svg" width="76.379" height="67.388" viewBox="0 0 76.379 67.388">
  <defs>
    <style type="text/css" >
      .dark-mode {
        fill: #fff;
      }
      .light-mode {
        fill: #000;
      }
    </style>
  </defs>
  <g id="web-programming" class="dark-mode" opacity="0.58">
    <path id="Path_523" data-name="Path 523" d="M124.419,197.408a1.256,1.256,0,0,1-.816-.3l-8.16-6.948a1.261,1.261,0,0,1,0-1.92l8.16-6.948a1.261,1.261,0,1,1,1.635,1.92l-7.032,5.988,7.032,5.988a1.261,1.261,0,0,1-.818,2.221Zm0,0" transform="translate(-94.284 -148.386)"/>
    <path id="Path_524" data-name="Path 524" d="M250.969,197.408a1.262,1.262,0,0,1-.818-2.221l7.032-5.988-7.032-5.988a1.261,1.261,0,0,1,1.635-1.92l8.16,6.948a1.261,1.261,0,0,1,0,1.92l-8.16,6.948a1.256,1.256,0,0,1-.816.3Zm0,0" transform="translate(-204.725 -148.386)"/>
    <path id="Path_525" data-name="Path 525" d="M190.217,179.692a1.284,1.284,0,0,1-.262-.027,1.261,1.261,0,0,1-.974-1.494l5.085-24.145a1.261,1.261,0,0,1,2.468.52l-5.085,24.145A1.261,1.261,0,0,1,190.217,179.692Zm0,0" transform="translate(-154.916 -125.459)"/>
    <path id="Path_526" data-name="Path 526" d="M67.913,67.388H8.467A8.476,8.476,0,0,1,0,58.921V8.467A8.477,8.477,0,0,1,8.467,0H67.913a8.477,8.477,0,0,1,8.467,8.467V58.921A8.476,8.476,0,0,1,67.913,67.388ZM8.467,2.522A5.952,5.952,0,0,0,2.522,8.467V58.921a5.952,5.952,0,0,0,5.945,5.945H67.913a5.952,5.952,0,0,0,5.945-5.945V8.467a5.952,5.952,0,0,0-5.945-5.945Zm0,0"/>
    <path id="Path_527" data-name="Path 527" d="M75.118,100.612H1.261a1.261,1.261,0,0,1,0-2.522H75.118a1.261,1.261,0,1,1,0,2.522Zm0,0" transform="translate(0 -80.42)"/>
    <path id="Path_528" data-name="Path 528" d="M101.44,42.27a3.991,3.991,0,1,1,3.991-3.991,4,4,0,0,1-3.991,3.991Zm0-5.459a1.469,1.469,0,1,0,1.469,1.469,1.47,1.47,0,0,0-1.469-1.469Zm0,0" transform="translate(-79.895 -28.112)"/>
    <path id="Path_529" data-name="Path 529" d="M33.377,42.055a3.991,3.991,0,1,1,3.991-3.991A4,4,0,0,1,33.377,42.055Zm0-5.459a1.469,1.469,0,1,0,1.469,1.469A1.471,1.471,0,0,0,33.377,36.6Zm0,0" transform="translate(-24.093 -27.936)"/>
    <path id="Path_530" data-name="Path 530" d="M169.505,42.484a3.99,3.99,0,1,1,3.99-3.991A3.995,3.995,0,0,1,169.505,42.484Zm0-5.459a1.469,1.469,0,1,0,1.469,1.469A1.47,1.47,0,0,0,169.505,37.025Zm0,0" transform="translate(-135.7 -28.288)"/>
  </g>
</svg>
