<svg xmlns="http://www.w3.org/2000/svg" width="86.304" height="67.388" viewBox="0 0 86.304 67.388">
  <style >
    .dark-mode {
      fill: #fff;
    }
    .light-mode {
      fill: #000;
    }
  </style>
  <g id="ux-design" class="dark-mode" transform="translate(0 -56)" opacity="0.58">
    <path id="Path_516" data-name="Path 516" d="M33.267,90.533a1.269,1.269,0,1,0-.9-.372A1.271,1.271,0,0,0,33.267,90.533Z" transform="translate(-26.595 -26.595)"/>
    <path id="Path_517" data-name="Path 517" d="M57.267,90.533a1.269,1.269,0,1,0-.9-.372A1.268,1.268,0,0,0,57.267,90.533Z" transform="translate(-46.542 -26.595)"/>
    <path id="Path_518" data-name="Path 518" d="M81.267,90.533a1.269,1.269,0,1,0-.9-.372A1.271,1.271,0,0,0,81.267,90.533Z" transform="translate(-66.489 -26.595)"/>
    <path id="Path_519" data-name="Path 519" d="M113.267,90.533H164.61a1.267,1.267,0,0,0,0-2.533H113.267a1.267,1.267,0,1,0,0,2.533Z" transform="translate(-93.084 -26.595)"/>
    <path id="Path_520" data-name="Path 520" d="M449.267,90.533h2.7a1.267,1.267,0,1,0,0-2.533h-2.7a1.267,1.267,0,1,0,0,2.533Z" transform="translate(-372.337 -26.595)"/>
    <path id="Path_521" data-name="Path 521" d="M114.121,168H89.8a3.973,3.973,0,0,0-3.969,3.969v.084H84.4a3.973,3.973,0,0,0-3.969,3.969v10.894H77.556v-4.138a3.973,3.973,0,0,0-3.969-3.969H51.969A3.973,3.973,0,0,0,48,182.778v10.809a3.973,3.973,0,0,0,3.969,3.969H73.587a3.973,3.973,0,0,0,3.969-3.969v-4.138h2.871v10.893a3.973,3.973,0,0,0,3.969,3.969h1.436v.084a3.973,3.973,0,0,0,3.969,3.969h24.32a3.973,3.973,0,0,0,3.969-3.969v-2.7a3.973,3.973,0,0,0-3.969-3.969H89.8a3.973,3.973,0,0,0-3.969,3.969v.084H84.4a1.437,1.437,0,0,1-1.436-1.436V189.449h2.871v.084A3.973,3.973,0,0,0,89.8,193.5h24.32a3.973,3.973,0,0,0,3.969-3.969v-2.7a3.973,3.973,0,0,0-3.969-3.969H89.8a3.973,3.973,0,0,0-3.969,3.969v.084H82.961V176.022a1.437,1.437,0,0,1,1.436-1.436h1.436v.084A3.973,3.973,0,0,0,89.8,178.64h24.32a3.973,3.973,0,0,0,3.969-3.969v-2.7A3.973,3.973,0,0,0,114.121,168Zm-39.1,25.587a1.437,1.437,0,0,1-1.436,1.436H51.969a1.437,1.437,0,0,1-1.436-1.436V182.778a1.437,1.437,0,0,1,1.436-1.436H73.587a1.437,1.437,0,0,1,1.436,1.436Zm13.342,8.107a1.437,1.437,0,0,1,1.436-1.436h24.32a1.437,1.437,0,0,1,1.436,1.436v2.7a1.437,1.437,0,0,1-1.436,1.436H89.8a1.437,1.437,0,0,1-1.436-1.436Zm0-14.862A1.437,1.437,0,0,1,89.8,185.4h24.32a1.437,1.437,0,0,1,1.436,1.436v2.7a1.437,1.437,0,0,1-1.436,1.436H89.8a1.437,1.437,0,0,1-1.436-1.436Zm27.192-12.16a1.437,1.437,0,0,1-1.436,1.436H89.8a1.437,1.437,0,0,1-1.436-1.436v-2.7a1.437,1.437,0,0,1,1.436-1.436h24.32a1.437,1.437,0,0,1,1.436,1.436Z" transform="translate(-39.893 -93.084)"/>
    <path id="Path_522" data-name="Path 522" d="M79.632,56H6.671A6.679,6.679,0,0,0,0,62.671v54.045a6.679,6.679,0,0,0,6.671,6.671H79.632a6.679,6.679,0,0,0,6.671-6.671V62.671A6.679,6.679,0,0,0,79.632,56ZM6.671,58.533H79.632a4.143,4.143,0,0,1,4.138,4.138v4.138H2.533V62.671A4.143,4.143,0,0,1,6.671,58.533Zm72.961,62.321H6.671a4.143,4.143,0,0,1-4.138-4.138V69.342H83.77v47.374A4.143,4.143,0,0,1,79.632,120.854Z"/>
  </g>
</svg>
